<?xml version="1.0" encoding="UTF-8" standalone="no"?>
<svg
   xmlns:dc="http://purl.org/dc/elements/1.1/"
   xmlns:cc="http://creativecommons.org/ns#"
   xmlns:rdf="http://www.w3.org/1999/02/22-rdf-syntax-ns#"
   xmlns:svg="http://www.w3.org/2000/svg"
   xmlns="http://www.w3.org/2000/svg"
   xmlns:sodipodi="http://sodipodi.sourceforge.net/DTD/sodipodi-0.dtd"
   xmlns:inkscape="http://www.inkscape.org/namespaces/inkscape"
   aria-hidden="true"
   focusable="false"
   data-prefix="fas"
   data-icon="text-height"
   class="svg-inline--fa fa-text-height fa-w-18"
   role="img"
   viewBox="0 0 3200 3200"
   version="1.1"
   id="svg4"
   sodipodi:docname="logo.svg"
   width="3200"
   height="3200"
   inkscape:version="0.92.4 (5da689c313, 2019-01-14)">
  <metadata
     id="metadata10">
    <rdf:RDF>
      <cc:Work
         rdf:about="">
        <dc:format>image/svg+xml</dc:format>
        <dc:type
           rdf:resource="http://purl.org/dc/dcmitype/StillImage" />
        <dc:title></dc:title>
      </cc:Work>
    </rdf:RDF>
  </metadata>
  <defs
     id="defs8" />
  <sodipodi:namedview
     pagecolor="#ffffff"
     bordercolor="#666666"
     borderopacity="1"
     objecttolerance="10"
     gridtolerance="10"
     guidetolerance="10"
     inkscape:pageopacity="0"
     inkscape:pageshadow="2"
     inkscape:window-width="1920"
     inkscape:window-height="1017"
     id="namedview6"
     showgrid="false"
     inkscape:zoom="0.11523438"
     inkscape:cx="954.02121"
     inkscape:cy="1080.3464"
     inkscape:window-x="1592"
     inkscape:window-y="-8"
     inkscape:window-maximized="1"
     inkscape:current-layer="svg4" />
  <rect
     style="opacity:1;vector-effect:none;fill:#0f6674;fill-opacity:1;stroke:none;stroke-width:1.88338637;stroke-linecap:square;stroke-linejoin:miter;stroke-miterlimit:4;stroke-dasharray:none;stroke-dashoffset:0;stroke-opacity:1;paint-order:normal"
     id="rect4520"
     width="3200"
     height="3200"
     x="0"
     y="-2.2870594e-13" />
  <path
     d="M 1666.462,669.10398 H 469.5958 a 66.492571,66.492571 0 0 0 -66.49257,66.49269 v 398.95543 a 66.492571,66.492571 0 0 0 66.49257,66.4924 h 132.98514 a 66.492571,66.492571 0 0 0 66.49258,-66.4924 V 1001.567 H 901.79751 V 2264.9258 H 735.56607 a 66.492571,66.492571 0 0 0 -66.49255,66.4926 v 132.9852 a 66.492571,66.492571 0 0 0 66.49255,66.4924 h 664.92563 a 66.492571,66.492571 0 0 0 66.4927,-66.4924 v -132.9852 a 66.492571,66.492571 0 0 0 -66.4927,-66.4926 H 1234.2603 V 1001.567 h 232.7241 v 132.9851 a 66.492571,66.492571 0 0 0 66.4925,66.4924 h 132.9851 a 66.492571,66.492571 0 0 0 66.4926,-66.4924 V 735.59667 A 66.492571,66.492571 0 0 0 1666.462,669.10398 Z M 2730.3431,2065.4481 h -199.4776 v -930.896 h 199.4776 c 59.4694,0 88.6429,-71.9368 47.002,-113.4946 L 2444.8822,688.59473 a 66.492571,66.492571 0 0 0 -94.0039,0 l -332.4628,332.46277 c -38.7734,38.6902 -17.9945,113.4946 47.0019,113.4946 h 199.4778 v 930.896 h -199.4778 c -59.4692,0 -88.6013,71.9365 -47.0019,113.4945 l 332.4628,332.4627 a 66.492571,66.492571 0 0 0 94.0039,0 l 332.4629,-332.4627 c 38.7735,-38.6905 17.9947,-113.4945 -47.002,-113.4945 z"
     id="path2"
     inkscape:connector-curvature="0"
     style="fill:#ffffff;stroke-width:4.15578556;fill-opacity:1" />
</svg>
