<?xml version="1.0" encoding="UTF-8" standalone="no"?>
<svg
   xmlns:dc="http://purl.org/dc/elements/1.1/"
   xmlns:cc="http://creativecommons.org/ns#"
   xmlns:rdf="http://www.w3.org/1999/02/22-rdf-syntax-ns#"
   xmlns:svg="http://www.w3.org/2000/svg"
   xmlns="http://www.w3.org/2000/svg"
   xmlns:sodipodi="http://sodipodi.sourceforge.net/DTD/sodipodi-0.dtd"
   xmlns:inkscape="http://www.inkscape.org/namespaces/inkscape"
   aria-hidden="true"
   focusable="false"
   data-prefix="fas"
   data-icon="text-height"
   class="svg-inline--fa fa-text-height fa-w-18"
   role="img"
   viewBox="0 0 3200 3200"
   version="1.1"
   id="svg4"
   sodipodi:docname="splash.svg"
   width="3200"
   height="3200"
   inkscape:version="0.92.4 (5da689c313, 2019-01-14)">
  <metadata
     id="metadata10">
    <rdf:RDF>
      <cc:Work
         rdf:about="">
        <dc:format>image/svg+xml</dc:format>
        <dc:type
           rdf:resource="http://purl.org/dc/dcmitype/StillImage" />
        <dc:title />
      </cc:Work>
    </rdf:RDF>
  </metadata>
  <defs
     id="defs8" />
  <sodipodi:namedview
     pagecolor="#ffffff"
     bordercolor="#666666"
     borderopacity="1"
     objecttolerance="10"
     gridtolerance="10"
     guidetolerance="10"
     inkscape:pageopacity="0"
     inkscape:pageshadow="2"
     inkscape:window-width="1920"
     inkscape:window-height="1017"
     id="namedview6"
     showgrid="false"
     inkscape:zoom="0.11523438"
     inkscape:cx="-629.70753"
     inkscape:cy="1080.3464"
     inkscape:window-x="1592"
     inkscape:window-y="-8"
     inkscape:window-maximized="1"
     inkscape:current-layer="svg4" />
  <rect
     style="opacity:1;vector-effect:none;fill:#0f6674;fill-opacity:1;stroke:none;stroke-width:1.88338637;stroke-linecap:square;stroke-linejoin:miter;stroke-miterlimit:4;stroke-dasharray:none;stroke-dashoffset:0;stroke-opacity:1;paint-order:normal"
     id="rect4520"
     width="3200"
     height="3200"
     x="0"
     y="-2.2870594e-13" />
  <path
     d="M 1613.7986,1406.7311 H 1365.31 a 13.804923,13.804923 0 0 0 -13.8049,13.8049 v 82.8295 a 13.804923,13.804923 0 0 0 13.8049,13.8049 h 27.6098 a 13.804923,13.804923 0 0 0 13.805,-13.8049 v -27.6098 h 48.3172 v 262.2935 h -34.5123 a 13.804923,13.804923 0 0 0 -13.8049,13.805 v 27.6098 a 13.804923,13.804923 0 0 0 13.8049,13.8049 h 138.0492 a 13.804923,13.804923 0 0 0 13.8049,-13.8049 v -27.6098 a 13.804923,13.804923 0 0 0 -13.8049,-13.805 h -34.5123 v -262.2935 h 48.3172 v 27.6098 a 13.804923,13.804923 0 0 0 13.8049,13.8049 h 27.6099 a 13.804923,13.804923 0 0 0 13.8049,-13.8049 v -82.8295 a 13.804923,13.804923 0 0 0 -13.8049,-13.8049 z m 220.8787,289.9034 h -41.4147 v -193.269 h 41.4147 c 12.3468,0 18.4037,-14.9352 9.7584,-23.5633 l -69.0246,-69.0246 a 13.804923,13.804923 0 0 0 -19.5167,0 l -69.0246,69.0246 c -8.05,8.0327 -3.736,23.5633 9.7583,23.5633 h 41.4148 v 193.269 h -41.4148 c -12.3467,0 -18.395,14.9351 -9.7583,23.5632 l 69.0246,69.0246 a 13.804923,13.804923 0 0 0 19.5167,0 l 69.0246,-69.0246 c 8.05,-8.0327 3.736,-23.5632 -9.7584,-23.5632 z"
     id="path2"
     inkscape:connector-curvature="0"
     style="fill:#ffffff;fill-opacity:1;stroke-width:0.86280763" />
</svg>
